<svg viewBox="71.147 190.371 335.466 49.326" xmlns="http://www.w3.org/2000/svg">
  <defs></defs>
  <linearGradient gradientUnits="userSpaceOnUse" id="a" x1="0" x2="328.858" y1="24.661" y2="24.661" gradientTransform="matrix(1, 0, 0, 1, 71.147095, 190.371445)">
    <stop offset="0.323" stop-color="#ffb198"></stop>
    <stop offset="1" stop-color="#ff3e89"></stop>
  </linearGradient>
  <path d="M 90.637 195.241 C 88.877 195.431 85.167 195.001 83.297 194.901 C 84.177 194.321 88.597 195.101 90.637 195.241 Z M 74.547 198.541 C 76.767 198.241 77.827 198.981 79.457 198.381 C 77.967 198.511 74.747 197.721 74.547 198.541 Z M 86.747 190.841 C 84.647 190.771 81.677 190.071 79.827 190.521 C 82.057 190.711 85.467 191.351 86.747 190.841 Z M 85.507 209.211 C 84.257 209.631 82.557 208.791 82.217 209.451 C 83.257 209.341 85.727 209.981 85.507 209.211 Z M 82.327 198.121 C 86.687 198.191 92.107 198.831 95.797 198.531 L 88.867 198.231 C 86.817 198.261 83.717 197.741 82.327 198.121 Z M 101.907 199.171 C 101.367 199.151 101.547 198.821 101.107 198.751 C 101.267 199.771 99.687 198.051 99.057 198.861 C 100.147 198.801 101.107 199.741 101.907 199.171 Z M 78.297 205.811 C 78.307 205.621 78.637 205.601 78.727 205.441 C 77.987 205.211 73.977 205.221 74.627 205.641 C 75.147 205.661 75.207 205.421 75.867 205.501 C 76.387 206.221 84.407 206.091 78.297 205.811 Z M 117.677 193.101 C 117.717 193.341 117.787 193.561 118.477 193.511 L 118.497 192.941 C 117.487 192.871 116.517 192.831 116.447 193.241 C 117.007 193.271 117.347 193.191 117.677 193.101 Z M 71.147 209.711 C 72.397 209.651 74.657 210.121 75.247 209.711 C 73.777 209.401 72.497 209.331 71.147 209.711 Z M 87.117 219.081 C 84.867 219.081 79.557 218.511 79.327 218.921 C 82.247 218.701 85.627 219.911 87.117 219.081 Z M 85.497 200.381 L 88.357 200.511 C 88.487 199.711 85.847 200.201 85.497 200.381 Z M 77.197 194.241 C 75.817 194.301 73.417 193.821 72.697 194.231 C 74.087 194.171 76.477 194.651 77.197 194.241 Z M 80.517 201.881 C 78.977 202.041 76.137 202.021 76.417 202.081 C 80.027 202.781 85.687 203.251 88.657 202.831 C 88.017 202.781 87.237 202.791 87.447 202.391 C 84.137 202.341 82.697 202.721 79.687 202.231 C 80.187 202.231 80.657 202.211 80.517 201.881 Z M 119.927 198.171 C 118.037 198.331 116.327 197.451 115.037 197.981 C 116.467 198.341 121.067 198.331 119.927 198.171 Z M 135.937 195.891 C 137.407 195.331 140.157 196.401 140.857 195.291 C 135.227 195.291 126.957 193.941 121.707 194.211 C 126.477 195.041 132.277 195.251 136.757 195.731 C 136.447 195.761 135.957 195.711 135.937 195.891 Z M 330.927 196.891 C 327.257 197.021 322.507 196.641 319.507 197.091 C 324.337 197.331 327.657 197.351 330.927 196.891 Z M 292.597 196.431 C 297.017 196.251 301.427 196.021 305.247 195.531 C 300.727 195.691 296.197 195.851 292.597 196.431 Z M 341.117 194.951 C 345.537 195.831 350.357 194.881 352.537 196.621 C 361.867 196.101 367.747 195.921 373.717 193.581 C 367.797 194.651 357.607 195.521 351.297 194.131 C 350.667 194.821 352.677 194.241 352.517 194.701 C 348.257 194.891 344.537 194.701 341.117 194.951 Z M 397.467 200.771 C 396.727 200.351 393.667 200.051 392.567 200.451 C 393.907 200.821 396.687 201.201 397.467 200.771 Z M 372.937 196.261 C 373.387 195.701 373.787 195.121 374.557 194.711 C 373.307 194.581 373.077 194.921 372.107 194.921 C 372.067 195.521 372.297 195.991 372.937 196.261 Z M 301.567 197.241 C 300.277 197.191 298.337 196.461 297.077 197.031 C 297.317 197.751 300.857 197.861 301.567 197.241 Z M 142.057 195.911 C 146.707 195.651 154.147 196.551 157.967 196.241 C 153.817 195.901 145.407 195.151 141.257 195.501 C 142.447 195.481 142.657 195.591 142.057 195.911 Z M 147.827 194.381 C 146.577 193.771 143.567 193.991 141.717 194.171 C 144.017 194.011 146.547 194.731 147.827 194.381 Z M 164.487 196.631 C 164.397 196.331 163.817 196.581 163.667 196.801 C 165.297 196.851 166.927 196.901 168.557 196.951 C 169.457 196.601 165.587 196.741 164.487 196.631 Z M 396.187 226.111 C 394.997 225.881 393.277 225.901 392.087 226.161 C 392.187 226.501 392.797 226.591 393.737 226.521 C 393.437 227.141 390.697 226.361 390.867 226.751 C 390.567 226.581 390.847 225.981 388.807 226.201 C 389.737 226.931 387.757 228.471 385.147 228.741 C 385.497 229.021 386.467 229.001 387.207 229.101 C 387.497 229.611 386.367 229.481 385.987 229.691 C 387.657 230.721 392.187 229.221 393.387 230.361 C 392.737 231.061 386.077 230.581 386.427 231.601 C 384.007 232.061 379.987 231.141 376.987 232.091 C 382.457 232.361 388.907 232.131 393.017 233.041 C 392.717 233.391 392.267 233.081 391.787 233.061 C 391.307 233.101 391.447 233.411 391.387 233.641 C 388.227 233.601 386.787 233.721 384.817 233.341 C 382.627 234.131 378.847 234.201 374.967 234.221 C 376.227 233.751 380.887 233.601 383.587 233.551 C 377.907 233.051 373.937 233.961 367.987 233.701 C 367.997 233.881 368.487 233.841 368.807 233.881 C 368.197 234.181 366.967 234.191 367.167 234.861 C 353.837 236.821 332.587 236.071 319.097 236.401 C 319.107 236.211 319.597 236.251 319.917 236.211 C 316.997 236.051 312.707 236.631 308.827 236.191 C 308.857 235.981 309.107 235.881 309.477 235.841 C 303.207 235.991 297.697 236.631 290.757 235.931 C 285.067 235.361 292.427 235.801 292.397 235.751 C 291.767 234.751 284.837 236.391 283.767 235.891 C 283.867 235.611 284.997 235.831 285.007 235.521 C 283.977 235.131 283.027 235.701 281.307 235.881 C 281.407 235.671 282.127 235.751 282.127 235.501 C 274.517 235.331 266.727 235.421 258.827 235.571 C 250.927 235.711 242.917 235.841 234.867 235.701 C 234.127 236.201 236.667 236.101 235.267 236.281 C 235.927 236.641 236.567 236.161 237.317 236.691 C 237.147 237.061 235.437 236.681 236.067 237.441 C 234.927 237.061 234.997 236.141 234.047 235.681 C 225.887 234.491 219.187 236.331 210.197 235.991 C 210.477 236.381 211.287 236.531 212.237 236.611 C 212.057 237.391 207.017 234.791 206.077 236.471 C 201.217 235.491 197.537 235.711 191.697 235.951 C 191.757 235.611 191.197 235.531 191.307 235.181 C 190.047 235.261 190.117 236.011 188.007 235.671 C 188.077 235.311 189.397 235.591 189.657 235.331 C 186.347 234.651 182.537 235.401 178.967 235.241 C 179.807 234.871 178.807 234.861 178.157 234.641 C 177.927 234.921 177.897 234.931 176.907 235.181 C 176.217 235.041 176.667 234.731 177.327 234.811 C 171.817 234.351 162.507 234.451 154.307 234.511 C 154.347 234.941 156.047 234.651 156.767 234.781 C 156.527 234.951 155.617 235.031 156.347 235.151 C 143.187 234.731 127.477 233.951 116.537 232.981 C 117.607 232.361 120.317 232.581 122.717 232.641 C 123.777 232.631 122.167 232.291 122.747 231.871 C 124.237 232.101 124.947 231.611 125.617 231.981 C 125.887 232.511 123.687 231.771 123.957 232.301 C 124.657 232.771 125.987 231.921 127.257 232.041 C 124.027 231.101 118.667 231.251 115.807 230.451 C 115.327 230.461 115.447 230.781 115.377 231.011 C 112.567 230.151 106.447 230.811 102.237 230.481 C 108.997 229.661 118.927 230.641 125.267 230.431 C 122.587 229.301 119.497 230.011 117.487 229.751 C 116.977 229.681 116.477 229.181 116.277 229.131 C 115.867 229.021 115.917 229.511 115.857 229.501 C 115.197 229.421 114.847 228.951 114.237 228.871 C 111.827 228.531 109.247 229.451 105.607 228.711 C 105.667 228.941 106.347 228.911 106.827 228.961 C 104.447 229.431 103.857 228.451 101.077 228.721 C 101.467 228.331 106.217 228.521 108.887 228.661 C 107.257 227.661 103.647 228.141 101.107 227.951 C 102.047 228.021 98.147 228.001 100.707 227.741 C 101.817 227.631 107.577 228.091 109.347 227.521 C 109.447 228.131 112.747 227.711 115.907 227.971 C 113.747 227.191 119.257 227.831 120.847 227.771 C 119.157 227.271 118.637 226.671 116.787 226.661 C 117.237 226.241 119.367 226.681 120.487 226.611 C 119.137 226.171 116.997 226.071 114.757 226.011 C 114.657 225.701 115.157 225.701 115.187 225.451 C 112.247 225.701 109.397 224.951 108.207 225.371 C 107.007 224.551 105.067 224.041 101.687 224.141 C 100.647 223.831 103.727 224.041 104.157 223.861 C 102.007 223.161 100.117 223.171 97.617 223.201 C 99.777 222.301 103.277 223.331 107.047 223.601 C 105.907 222.401 108.777 224.081 109.937 223.141 C 109.857 223.291 109.517 223.321 109.517 223.511 C 111.507 223.831 111.137 222.921 112.817 223.071 C 111.677 222.801 110.267 222.821 108.717 222.901 C 107.807 222.611 110.747 222.671 111.197 222.431 C 110.377 221.951 107.667 222.151 106.687 222.241 C 108.307 221.651 105.507 221.731 103.847 221.541 C 106.877 221.241 108.397 221.901 110.827 221.451 C 110.847 221.161 108.407 221.071 110.427 221.051 C 107.387 220.501 104.057 220.771 102.237 220.711 C 103.547 220.091 104.447 220.341 107.177 220.341 C 106.457 219.441 103.777 220.521 103.107 219.591 C 103.227 219.201 104.907 219.611 105.167 219.291 C 103.287 218.571 99.257 218.751 96.177 218.531 C 98.317 217.351 102.927 218.231 106.057 217.791 C 105.227 217.441 101.587 217.281 100.737 217.571 C 99.317 217.181 101.557 217.111 102.387 217.251 C 100.037 216.401 99.987 217.681 98.287 217.081 C 98.537 216.491 100.677 216.891 101.587 216.651 C 101.507 216.401 100.377 216.351 100.357 216.601 C 100.157 215.841 105.677 216.371 107.357 215.931 C 107.267 215.451 103.977 216.031 106.137 215.691 C 104.557 215.481 104.747 215.321 102.877 215.171 C 105.917 215.091 105.627 214.611 108.627 215.031 C 108.147 214.731 106.847 214.771 107.437 214.021 C 106.357 213.921 107.087 214.751 105.777 214.531 C 105.787 214.341 105.797 214.151 105.797 213.951 C 103.027 213.761 101.747 213.951 99.657 213.691 C 102.867 213.301 103.927 213.211 107.037 213.611 C 105.457 212.651 100.197 212.641 98.867 213.081 C 98.377 212.661 99.187 212.821 97.237 212.821 C 98.267 212.531 98.077 212.431 96.437 212.401 C 97.107 211.951 99.297 212.441 100.117 212.551 C 100.427 211.321 97.727 212.081 96.877 211.651 C 98.797 211.201 101.017 211.861 102.617 211.511 C 102.047 211.431 100.337 211.221 98.537 211.151 C 100.407 210.961 102.757 210.161 104.707 210.641 C 104.137 209.771 101.627 210.721 100.227 210.071 C 102.037 209.401 104.767 210.421 107.207 209.791 C 106.877 209.281 105.397 210.081 104.757 209.501 C 104.827 210.051 101.017 209.431 99.857 209.101 C 104.737 209.061 107.237 209.331 112.557 209.051 C 109.647 208.931 107.527 208.241 104.007 207.931 C 105.747 208.731 102.847 208.071 102.377 207.671 C 102.007 208.071 100.857 208.051 99.497 207.931 C 99.517 207.751 100.007 207.801 100.327 207.771 C 95.637 207.011 90.117 207.151 83.597 206.461 C 92.257 206.131 100.817 207.631 106.497 207.071 C 97.457 206.011 92.337 205.741 80.387 204.971 C 85.387 204.491 92.377 205.741 97.567 205.161 C 98.177 205.351 97.437 205.441 97.937 205.941 C 99.697 205.611 106.677 206.471 109.787 206.441 C 109.727 206.211 109.047 206.251 108.567 206.201 C 109.367 205.591 110.227 206.151 111.847 206.141 C 111.037 205.051 107.737 205.891 104.917 205.471 C 104.977 205.701 105.657 205.661 106.137 205.711 C 105.477 206.451 103.767 205.111 103.687 205.611 C 102.497 205.351 104.237 205.011 104.937 205.091 C 104.597 204.741 103.597 204.441 104.967 204.321 C 104.857 203.871 103.727 203.841 103.367 203.491 C 103.037 203.581 102.697 203.661 102.137 203.631 C 100.907 203.581 99.687 203.531 98.457 203.481 C 98.777 203.061 100.747 203.501 101.727 203.421 C 106.147 202.671 108.877 203.021 114.037 202.371 C 115.127 203.241 117.777 202.151 120.167 202.411 C 119.437 202.341 115.557 201.031 114.447 202.191 C 113.727 202.021 114.397 201.841 114.467 201.621 C 113.267 201.751 113.047 201.811 112.437 201.351 C 111.797 201.391 112.777 201.711 112.017 201.721 C 111.247 201.401 110.577 201.091 107.967 200.781 C 107.797 201.101 108.267 201.161 108.767 201.201 C 101.177 200.651 93.257 200.331 84.307 199.571 C 84.147 199.021 86.527 199.811 86.367 199.271 C 85.017 198.761 81.887 199.001 79.847 198.781 C 79.427 199.451 81.447 199.121 82.277 199.271 C 83.297 199.611 78.907 199.411 78.607 199.101 C 79.867 198.191 84.207 198.911 87.197 198.921 C 86.977 199.071 86.757 199.211 86.767 199.481 C 87.177 199.501 87.587 199.521 87.997 199.541 C 88.017 199.111 87.767 199.151 88.857 198.621 C 89.927 198.471 89.977 199.961 90.477 198.891 C 92.157 199.151 90.807 199.491 92.477 199.751 C 93.677 198.841 104.617 200.601 109.237 199.871 C 108.707 200.471 110.557 200.071 110.017 200.671 C 112.617 200.191 113.257 200.381 115.737 200.711 C 116.597 200.691 115.167 200.171 116.177 199.961 C 115.887 199.231 113.627 200.371 114.157 199.501 C 115.687 199.531 115.547 199.201 116.207 199.201 C 116.807 199.391 117.067 199.721 116.987 200.191 C 118.267 200.331 118.667 200.011 119.047 199.691 C 117.207 200.181 119.037 199.321 117.017 199.421 C 117.127 199.221 117.827 199.321 117.847 199.071 C 116.867 198.671 114.597 198.821 113.377 198.521 C 117.017 198.441 122.697 198.511 123.207 197.931 C 123.407 197.491 125.327 198.341 123.597 198.331 C 124.227 198.451 126.907 197.961 128.917 198.151 C 128.407 197.871 127.707 197.731 128.537 197.371 C 126.757 197.081 127.197 197.321 125.677 197.451 C 125.897 197.301 126.117 197.161 126.107 196.891 C 124.767 197.041 125.227 197.341 124.067 196.811 C 133.607 197.041 147.147 197.211 156.717 197.351 C 157.287 196.881 158.127 197.861 159.147 197.811 C 160.767 197.801 158.707 197.131 160.387 197.271 C 163.317 198.361 176.187 198.031 182.407 198.091 C 176.937 197.841 172.417 197.521 167.327 197.281 C 175.757 196.741 183.857 197.701 190.607 196.571 C 190.047 196.881 189.547 197.201 188.547 197.291 C 199.097 198.081 206.477 197.291 214.657 197.711 C 214.607 197.291 213.637 197.271 212.627 197.281 C 211.597 196.761 216.427 197.501 216.717 196.981 C 215.777 198.631 229.307 197.481 232.607 198.431 C 230.837 197.661 234.257 198.431 235.467 198.101 C 234.377 198.571 236.017 198.491 237.087 198.511 C 234.117 197.341 245.227 198.771 250.147 198.511 C 240.477 197.651 235.587 197.451 226.497 197.551 C 226.587 196.881 228.767 197.511 230.587 197.051 C 230.227 196.711 229.167 196.671 228.557 196.441 C 230.817 195.811 231.497 197.531 234.257 197.311 C 233.997 197.051 233.387 196.941 232.627 196.901 C 232.897 196.711 233.567 196.721 233.457 196.341 C 240.887 196.681 248.467 197.041 256.207 197.311 C 263.947 197.541 271.857 197.681 279.937 197.501 C 280.247 197.551 280.567 197.591 280.897 197.641 C 281.857 197.311 284.217 197.651 285.647 197.541 C 284.897 197.931 282.777 197.661 281.257 197.681 C 285.527 198.171 291.657 198.061 297.467 198.191 C 321.077 198.681 343.467 197.301 367.217 196.711 C 367.047 196.951 366.697 197.111 365.997 197.101 C 371.237 197.661 376.087 196.391 380.667 196.001 C 379.707 196.651 377.427 196.681 375.787 197.011 C 378.257 197.201 383.097 196.791 386.387 196.691 C 383.947 197.171 380.757 197.311 377.417 197.371 C 379.917 198.791 385.077 198.351 387.637 199.161 C 386.957 198.941 387.257 200.051 388.467 200.301 C 388.567 200.321 388.647 200.341 388.727 200.351 C 388.617 200.371 388.517 200.411 388.467 200.491 C 388.557 200.331 390.337 201.441 388.887 201.441 C 392.487 201.691 395.637 202.151 398.707 202.661 C 395.547 202.841 387.767 201.051 386.057 203.391 C 387.967 204.651 390.087 205.811 395.077 205.581 C 395.307 205.921 395.297 206.371 395.907 206.531 C 395.857 206.851 394.197 206.351 393.047 206.571 C 392.637 206.701 392.637 207.021 391.827 206.971 C 392.117 207.531 393.177 207.731 393.887 208.091 C 392.997 208.401 390.347 206.921 390.217 208.521 C 390.277 209.071 391.927 208.851 393.087 208.871 C 393.037 209.291 392.067 209.301 391.047 209.281 C 391.387 210.171 392.427 210.581 391.067 211.011 C 393.227 212.061 393.697 211.821 395.997 212.481 C 395.387 212.891 393.237 212.421 392.317 212.331 C 391.907 212.521 391.497 212.721 391.097 212.921 C 391.877 213.511 394.357 212.691 394.777 213.061 C 394.747 213.331 394.717 213.611 395.197 213.631 C 394.227 214.021 392.527 213.131 390.687 213.301 C 390.777 213.561 392.387 213.631 390.687 213.681 C 391.257 214.051 393.197 213.751 393.967 214.021 C 393.057 214.211 391.027 214.431 389.477 214.461 C 389.197 214.981 390.327 214.821 390.707 215.021 C 391.597 215.041 392.007 214.851 391.927 214.431 C 393.397 214.951 393.707 215.641 395.217 215.731 C 395.947 216.241 393.417 216.131 394.817 216.311 C 393.627 217.181 387.667 216.281 386.227 216.991 C 388.377 217.411 391.047 216.521 393.597 217.281 C 392.287 217.931 389.257 217.331 385.817 217.571 C 387.307 218.021 388.747 218.591 388.707 219.261 C 388.587 219.521 387.687 219.431 387.067 219.471 C 387.737 220.561 390.917 220.441 394.047 220.341 C 394.017 220.611 393.987 220.881 394.467 220.911 C 393.657 221.121 392.597 221.021 390.777 221.151 C 390.837 221.571 392.517 221.211 393.237 221.311 C 393.067 221.741 391.217 221.421 390.367 221.541 L 390.357 220.971 C 389.267 220.981 388.177 221.001 387.077 221.011 C 387.147 221.561 388.797 221.341 389.947 221.361 C 389.437 222.721 391.797 223.221 393.657 222.851 C 394.097 223.021 393.797 223.551 394.897 223.411 C 394.327 223.701 393.597 223.841 395.317 223.791 C 395.307 223.981 394.817 223.941 394.497 223.991 C 394.677 224.421 396.677 223.971 396.957 224.341 C 394.267 224.171 390.957 224.581 388.357 224.831 C 389.267 225.351 391.277 224.761 392.457 224.781 C 392.417 225.141 391.107 224.931 391.237 225.371 C 392.327 226.331 396.937 225.221 398.217 225.671 C 402.857 225.811 397.077 225.771 396.187 226.111 Z M 115.727 222.011 C 115.647 221.261 111.607 221.491 110.817 221.631 C 110.137 221.991 114.387 221.871 115.727 222.011 Z M 121.117 198.991 L 118.257 198.881 L 118.247 199.261 C 119.187 199.161 121.417 199.731 121.117 198.991 Z M 123.457 202.151 C 122.377 202.111 121.057 201.951 120.997 202.441 C 121.837 202.351 123.817 202.851 123.457 202.151 Z M 125.167 199.911 C 124.187 199.931 120.507 199.571 121.487 199.961 C 123.307 199.891 124.337 200.561 125.167 199.911 Z M 129.567 202.571 C 128.727 201.641 125.397 202.561 124.247 202.751 C 126.627 203.011 127.057 202.251 129.567 202.571 Z M 238.557 234.981 C 237.737 234.971 236.917 234.961 236.087 234.941 C 236.087 235.061 236.087 235.191 236.077 235.321 C 236.937 235.231 238.937 235.681 238.557 234.981 Z M 266.887 198.131 C 268.937 198.021 270.177 198.341 271.377 198.371 C 278.537 198.571 266.647 197.581 266.887 198.131 Z M 282.787 198.661 C 283.267 198.691 283.947 198.631 284.007 198.861 C 289.357 198.751 286.757 198.161 282.787 198.661 Z M 302.777 198.971 C 301.297 198.761 297.747 198.841 297.887 198.961 C 298.247 199.261 301.297 199.241 302.777 198.971 Z M 178.797 195.891 C 178.217 195.831 178.117 195.561 177.587 195.471 C 177.747 196.001 176.067 195.611 175.937 196.001 C 176.787 195.921 178.607 196.321 178.797 195.891 Z M 290.557 196.411 C 288.757 196.511 286.647 196.461 285.257 196.761 C 287.317 196.791 289.427 196.831 290.557 196.411 Z M 388.737 200.361 C 390.167 200.641 389.257 200.271 388.737 200.361 Z M 394.027 218.081 C 393.607 217.781 388.987 217.841 389.937 218.131 C 391.507 217.901 393.537 218.431 394.027 218.081 Z M 396.917 219.771 C 395.757 219.341 393.677 220.221 392.407 219.641 C 392.637 219.641 392.867 219.481 392.407 219.451 C 390.637 220.341 396.267 220.071 396.917 219.771 Z M 368.797 236.391 C 370.767 236.161 374.547 236.891 374.547 236.341 C 372.497 236.541 370.357 235.791 368.797 236.391 Z M 346.617 237.891 C 351.677 237.861 357.307 238.611 361.417 238.381 C 357.357 237.941 351.537 237.291 346.617 237.891 Z M 110.387 201.641 C 108.957 201.811 107.207 201.811 106.277 202.241 C 108.277 202.351 111.787 202.621 110.767 202.431 C 109.097 202.411 110.847 202.161 110.387 201.641 Z M 386.887 236.781 C 387.787 236.731 388.197 236.921 388.127 237.341 C 389.227 237.201 390.697 237.231 391.407 236.921 C 389.787 237.041 388.217 236.151 386.887 236.781 Z M 100.467 213.901 C 98.027 214.701 97.567 213.091 95.997 212.941 C 96.197 213.691 99.697 215.171 100.467 213.901 Z M 89.757 205.761 C 88.487 205.681 86.967 205.271 86.477 205.991 C 87.907 206.091 89.097 206.071 89.757 205.761 Z M 90.377 200.991 C 94.157 201.521 94.837 200.551 90.377 200.991 Z M 92.337 203.001 C 97.257 203.301 97.617 203.311 101.337 202.991 C 97.117 202.781 95.007 202.321 92.337 203.001 Z M 102.627 201.511 C 101.757 200.551 98.317 201.571 97.317 201.291 C 98.797 201.871 100.487 201.201 102.627 201.511 Z M 207.227 239.381 C 208.607 239.481 211.357 239.961 212.567 239.501 C 211.157 239.151 208.487 238.751 207.227 239.381 Z M 86.487 214.831 C 86.777 215.001 90.947 214.781 90.597 214.641 C 89.177 214.731 88.877 214.351 88.157 214.151 C 87.837 214.501 86.927 214.231 87.717 214.711 C 87.247 214.701 86.567 214.611 86.487 214.831 Z M 101.487 218.931 C 96.157 218.961 93.327 218.761 90.397 219.231 C 94.807 219.361 98.927 219.251 101.487 218.931 Z M 86.307 209.641 C 87.767 209.791 90.707 210.311 92.027 209.901 C 89.847 210.011 87.537 209.041 86.307 209.641 Z M 84.197 220.101 C 85.907 219.911 87.337 220.791 88.287 220.291 C 87.427 220.161 83.567 219.631 84.197 220.101 Z M 91.257 218.311 C 93.727 218.321 94.867 218.481 95.767 218.311 C 94.997 218.231 96.017 218.001 95.377 217.911 C 95.547 218.231 93.127 218.131 93.327 217.821 C 93.557 217.831 93.797 217.681 93.337 217.631 C 93.187 218.141 91.597 217.901 91.257 218.311 Z M 98.597 209.791 C 98.427 209.471 95.527 209.351 95.327 209.651 C 96.397 209.591 98.337 210.701 98.597 209.791 Z M 100.197 210.621 C 100.367 210.421 100.707 210.181 100.207 210.431 C 98.877 210.561 97.127 210.111 96.947 210.101 C 89.497 209.771 95.257 210.731 100.197 210.621 Z M 332.227 237.161 C 331.497 237.391 329.837 237.201 329.347 237.551 C 330.047 237.861 332.217 237.761 332.227 237.161 Z M 313.737 238.131 C 314.717 238.021 316.717 238.381 317.027 237.951 C 315.877 237.721 314.517 237.721 313.737 238.131 Z M 157.557 235.571 C 158.557 235.321 161.857 235.671 160.847 235.481 C 159.957 235.131 157.247 235.081 157.557 235.571 Z M 91.117 221.571 C 92.117 221.361 94.977 221.711 93.997 221.501 C 93.347 221.101 91.177 220.781 91.117 221.571 Z M 99.347 220.951 C 97.827 221.011 95.277 220.531 94.417 220.941 C 95.947 220.881 98.497 221.361 99.347 220.951 Z" fill="url(#a)"></path>
</svg>