<svg xmlns="http://www.w3.org/2000/svg" version="1.1" xmlns:xlink="http://www.w3.org/1999/xlink"
  xmlns:svgjs="http://svgjs.dev/svgjs" viewBox="0 0 800 800" opacity="1">
  <defs>
    <filter id="bbburst-blur-1" x="-100%" y="-100%" width="400%" height="400%">
      <feGaussianBlur in="SourceGraphic" stdDeviation="1"></feGaussianBlur>
    </filter>
    <filter id="bbburst-blur-2" x="-100%" y="-100%" width="400%" height="400%">
      <feGaussianBlur in="SourceGraphic" stdDeviation="2"></feGaussianBlur>
    </filter>
    <filter id="bbburst-blur-3" x="-100%" y="-100%" width="400%" height="400%">
      <feGaussianBlur in="SourceGraphic" stdDeviation="4"></feGaussianBlur>
    </filter>
    <filter id="bbburst-blur-4" x="-100%" y="-100%" width="400%" height="400%">
      <feGaussianBlur in="SourceGraphic" stdDeviation="12"></feGaussianBlur>
    </filter>
    <symbol id="bbburst-shape-1" viewBox="0 0 194 167">
      <path d="m97 0 96.129 166.5H.871L97 0Z"></path>
    </symbol>
    <symbol id="bbburst-shape-2" viewBox="0 0 126 115">
      <path d="m63 0 62.77 43.877-23.976 70.996H24.206L.23 43.877 63 0Z"></path>
    </symbol>
    <symbol id="bbburst-shape-4" viewBox="0 0 149 143">
      <path
        d="M71.647 2.781c.898-2.764 4.808-2.764 5.706 0l15.445 47.534a3 3 0 0 0 2.853 2.073h49.98c2.906 0 4.115 3.719 1.764 5.427L106.96 87.193a2.999 2.999 0 0 0-1.09 3.354l15.445 47.534c.898 2.764-2.266 5.062-4.617 3.354l-40.435-29.378a3 3 0 0 0-3.526 0l-40.435 29.378c-2.351 1.708-5.515-.59-4.617-3.354L43.13 90.547a3 3 0 0 0-1.09-3.354L1.605 57.815c-2.35-1.708-1.142-5.427 1.764-5.427h49.98a3 3 0 0 0 2.853-2.073L71.647 2.781Z">
      </path>
    </symbol>
    <symbol id="bbburst-shape-6" viewBox="0 0 133 116">
      <path
        d="M59.7487 10.2513c-13.6683-13.66839-35.8291-13.66839-49.4974 0-13.66839 13.6683-13.66839 35.8291 0 49.4974l49.4974-49.4974ZM66.5 66.5 41.7513 91.2487 66.5 115.997l24.7487-24.7483L66.5 66.5Zm56.249-6.7513c13.668-13.6683 13.668-35.8291 0-49.4974-13.669-13.66839-35.8294-13.66839-49.4977 0l49.4977 49.4974Zm-112.4977 0 31.5 31.5 49.4974-49.4974-31.5-31.5-49.4974 49.4974Zm80.9974 31.5 31.5003-31.5-49.4977-49.4974-31.5 31.5 49.4974 49.4974Z">
      </path>
    </symbol>
    <symbol id="bbburst-shape-8" viewBox="0 0 87 168">
      <path
        d="m12 12 31.2546 18.0749c16.4102 9.4902 20.014 31.6325 7.4603 45.8369L36.3296 92.1884c-12.5684 14.2206-8.9394 36.3916 7.5068 45.8636L75 156"
        stroke-width="14" stroke-linecap="round" stroke-linejoin="round"></path>
    </symbol>
    <symbol id="bbburst-shape-10" viewBox="0 0 145 145">
      <circle cx="72.5" cy="72.5" r="61.5" fill="none" stroke-width="22"></circle>
    </symbol>
  </defs>
  <use xlink:href="#bbburst-shape-1" width="55.834904514306714" opacity="0.2376557240416035"
    transform="matrix(1.1982546234108644,-0.3559295681374158,0.3559295681374158,1.1982546234108644,-29.189500809028743,-300.53564030489906)"
    fill="#00a19d" filter="url(#bbburst-blur-3)"></use>
  <use xlink:href="#bbburst-shape-10" width="30.12115222759805" opacity="0.5772194909118311"
    transform="matrix(0.9254127467489169,-0.3789607475116979,0.3789607475116979,0.9254127467489169,271.26791908073164,222.20256691823846)"
    fill="none" stroke="#2c2891" filter="url(#bbburst-blur-1)"></use>
  <use xlink:href="#bbburst-shape-6" width="41.980754491849694" opacity="-0.043386664960819665"
    transform="matrix(1.7430270361240485,-0.15606649653469917,0.15606649653469917,1.7430270361240485,622.819167494755,47.93812061692961)"
    fill="#ffa6d5" filter="url(#bbburst-blur-4)"></use>
  <use xlink:href="#bbburst-shape-6" width="35.924165907955114" opacity="0.8113146364886458"
    transform="matrix(0.9799038499739267,0.19947041085403155,-0.19947041085403155,0.9799038499739267,409.32386291440343,-61.989002106983605)"
    fill="#ff5c58"></use>
  <use xlink:href="#bbburst-shape-8" width="51.77166424371109" opacity="0.15159204407227922"
    transform="matrix(0.9647542915716905,0.7948264948364553,-0.7948264948364553,0.9647542915716905,343.118926513446,-159.35533709409088)"
    fill="none" stroke="#00a19d" filter="url(#bbburst-blur-3)"></use>
  <use xlink:href="#bbburst-shape-8" width="35.03243096954813" opacity="0.15839898458181045"
    transform="matrix(1.0896600210166716,-0.6124875824030613,0.6124875824030613,1.0896600210166716,264.8472620914704,-381.2345536300538)"
    fill="none" stroke="#ff5c58" filter="url(#bbburst-blur-3)"></use>
  <use xlink:href="#bbburst-shape-1" width="45.61709530203517" opacity="0.5614908872329271"
    transform="matrix(0.9896830929136834,-0.14327377848303405,0.14327377848303405,0.9896830929136834,500.02811090519117,-73.62671168936299)"
    fill="#2c2891" filter="url(#bbburst-blur-1)"></use>
  <use xlink:href="#bbburst-shape-4" width="47.226703714238184" opacity="-0.04035992286010548"
    transform="matrix(1.64475956027611,-0.5977173151920039,0.5977173151920039,1.64475956027611,-212.32094058886386,-571.3440240932598)"
    fill="#00a19d" filter="url(#bbburst-blur-4)"></use>
  <use xlink:href="#bbburst-shape-1" width="34.715228550530014" opacity="0.14423323334853666"
    transform="matrix(1.0297176383917424,-0.708647715853888,0.708647715853888,1.0297176383917424,252.79676777486304,353.3788752770157)"
    fill="#ffa6d5" filter="url(#bbburst-blur-3)"></use>
  <use xlink:href="#bbburst-shape-6" width="46.36276522267746" opacity="0.5451428546012009"
    transform="matrix(0.8205378172099498,-0.5715922414871732,0.5715922414871732,0.8205378172099498,83.51231396128114,277.8015050118998)"
    fill="#2c2891" filter="url(#bbburst-blur-2)"></use>
  <use xlink:href="#bbburst-shape-10" width="33.12584229986314" opacity="0.6416358072617687"
    transform="matrix(0.7378377435821757,0.6749781212347282,-0.6749781212347282,0.7378377435821757,673.0647017838685,-66.85169554257169)"
    fill="none" stroke="#2c2891" filter="url(#bbburst-blur-1)"></use>
  <use xlink:href="#bbburst-shape-8" width="52.56069646952044" opacity="0.37119336879015563"
    transform="matrix(0.9727401878233484,0.2318976649157918,-0.2318976649157918,0.9727401878233484,250.37407736225543,186.62455714076367)"
    fill="none" stroke="#2c2891" filter="url(#bbburst-blur-2)"></use>
  <use xlink:href="#bbburst-shape-6" width="40.49065444038058" opacity="0.40293033833728087"
    transform="matrix(0.7893968764833484,-0.6138831903532895,0.6138831903532895,0.7893968764833484,-1.9305834292885038,-132.41227258492106)"
    fill="#ffbd9b" filter="url(#bbburst-blur-2)"></use>
  <use xlink:href="#bbburst-shape-10" width="31.771928716824686" opacity="0.36746525468480007"
    transform="matrix(0.890868506292772,-0.45426127338315464,0.45426127338315464,0.890868506292772,214.34427282194451,335.32675078168563)"
    fill="none" stroke="#ffbd9b" filter="url(#bbburst-blur-2)"></use>
  <use xlink:href="#bbburst-shape-1" width="34.517675700974294" opacity="0.216519552313288"
    transform="matrix(1.014769582523747,0.729892248475472,-0.729892248475472,1.014769582523747,321.92389564634675,-10.976853924151328)"
    fill="#ff5c58" filter="url(#bbburst-blur-3)"></use>
  <use xlink:href="#bbburst-shape-4" width="51.0286170784828" opacity="0.24829541547764367"
    transform="matrix(1.24998206907645,0.006695295912570065,-0.006695295912570065,1.24998206907645,606.1389898632968,142.86183021124748)"
    fill="#2c2891" filter="url(#bbburst-blur-3)"></use>
  <use xlink:href="#bbburst-shape-2" width="39.04546124592511" opacity="0.6271320231501281"
    transform="matrix(0.9814305168966345,-0.19181798795734667,0.19181798795734667,0.9814305168966345,450.4754413828768,93.24496078268794)"
    fill="#ffbd9b" filter="url(#bbburst-blur-1)"></use>
  <use xlink:href="#bbburst-shape-4" width="27.415698876295725" opacity="0.711133533742494"
    transform="matrix(0.7193299314964489,0.6946685897989877,-0.6946685897989877,0.7193299314964489,732.3829905397367,215.6832571504928)"
    fill="#ff5c58" filter="url(#bbburst-blur-1)"></use>
  <use xlink:href="#bbburst-shape-6" width="47.05032138888397" opacity="0.2105417347072538"
    transform="matrix(1.2499633920519893,0.009566531758424165,-0.009566531758424165,1.2499633920519893,722.8114509787686,-30.70365776406919)"
    fill="#2c2891" filter="url(#bbburst-blur-3)"></use>
  <use xlink:href="#bbburst-shape-6" width="37.8994422600676" opacity="0.4932501356818956"
    transform="matrix(0.7428868673608651,-0.6694169868645106,0.6694169868645106,0.7428868673608651,272.89737534808523,283.0306208990868)"
    fill="#00a19d" filter="url(#bbburst-blur-2)"></use>
  <use xlink:href="#bbburst-shape-8" width="52.009181785062125" opacity="0.0989320950994188"
    transform="matrix(1.4499528443026128,-0.9798656792125964,0.9798656792125964,1.4499528443026128,317.4486698504426,55.10857176807008)"
    fill="none" stroke="#ff5c58" filter="url(#bbburst-blur-4)"></use>
  <use xlink:href="#bbburst-shape-8" width="61.602459813958234" opacity="-0.03354030778390116"
    transform="matrix(1.7412437113451196,0.17484375225061327,-0.17484375225061327,1.7412437113451196,82.29079618171738,21.76217660258112)"
    fill="none" stroke="#ffbd9b" filter="url(#bbburst-blur-4)"></use>
  <use xlink:href="#bbburst-shape-6" width="46.95745430056927" opacity="0.41550031628966255"
    transform="matrix(0.9837976154106459,-0.17928260348490793,0.17928260348490793,0.9837976154106459,60.35722156958508,-85.43212999933053)"
    fill="#2c2891" filter="url(#bbburst-blur-2)"></use>
  <use xlink:href="#bbburst-shape-8" width="50.34023562135172" opacity="0.11923531348391214"
    transform="matrix(1.2256272148443816,0.2456378029392131,-0.2456378029392131,1.2256272148443816,807.3949480809588,-300.1396333312863)"
    fill="none" stroke="#ffa6d5" filter="url(#bbburst-blur-3)"></use>
  <use xlink:href="#bbburst-shape-4" width="36.84795586287532" opacity="0.37178791804149125"
    transform="matrix(0.9990754015182585,-0.0429923490999344,0.0429923490999344,0.9990754015182585,588.5483416188308,-171.0634528355309)"
    fill="#ffbd9b" filter="url(#bbburst-blur-2)"></use>
  <use xlink:href="#bbburst-shape-2" width="45.20453987940377" opacity="0.3951999328431256"
    transform="matrix(0.876974432487005,0.4805370378691901,-0.4805370378691901,0.876974432487005,305.6421662098031,92.41339117228307)"
    fill="#2c2891" filter="url(#bbburst-blur-2)"></use>
  <use xlink:href="#bbburst-shape-8" width="29.167153639735652" opacity="0.19297722713190768"
    transform="matrix(1.2235841054757814,0.25562068935638216,-0.25562068935638216,1.2235841054757814,840.8224581132002,-162.8124865854159)"
    fill="none" stroke="#ffbd9b" filter="url(#bbburst-blur-3)"></use>
  <use xlink:href="#bbburst-shape-4" width="40.36923084650283" opacity="0.522355610490547"
    transform="matrix(0.9697168598525181,-0.24423188104293778,0.24423188104293778,0.9697168598525181,496.8472724015049,36.01164631760997)"
    fill="#2c2891" filter="url(#bbburst-blur-2)"></use>
  <use xlink:href="#bbburst-shape-8" width="52.30548378487019" opacity="0.13691876414527338"
    transform="matrix(1.1474669179671952,0.49580204938147043,-0.49580204938147043,1.1474669179671952,390.88784673334646,-417.4457538797355)"
    fill="none" stroke="#ffa6d5" filter="url(#bbburst-blur-3)"></use>
  <use xlink:href="#bbburst-shape-4" width="35.904872134165814" opacity="0.6168933579950254"
    transform="matrix(0.7883938534807223,0.6151708151349651,-0.6151708151349651,0.7883938534807223,536.8417024775642,-70.20201197816601)"
    fill="#00a19d" filter="url(#bbburst-blur-1)"></use>
  <use xlink:href="#bbburst-shape-6" width="23.448252756155377" opacity="0.7965457201508079"
    transform="matrix(0.8956173921667633,0.4448252318027904,-0.4448252318027904,0.8956173921667633,590.0421983220351,-52.17991196709977)"
    fill="#00a19d"></use>
  <use xlink:href="#bbburst-shape-2" width="35.95523371361911" opacity="0.7057805419393093"
    transform="matrix(0.799400179103679,-0.6007989294672602,0.6007989294672602,0.799400179103679,277.6333746895432,86.30062922477515)"
    fill="#ffbd9b" filter="url(#bbburst-blur-1)"></use>
  <use xlink:href="#bbburst-shape-10" width="40.98069423861604" opacity="0.6315096164683157"
    transform="matrix(0.8929775578933842,0.450101189843759,-0.450101189843759,0.8929775578933842,438.5286163365856,144.5578561950909)"
    fill="none" stroke="#00a19d" filter="url(#bbburst-blur-1)"></use>
  <use xlink:href="#bbburst-shape-6" width="37.21181658857283" opacity="0.33809068610584836"
    transform="matrix(0.9991177117450315,-0.04199759609039703,0.04199759609039703,0.9991177117450315,236.3986108865936,269.98702079342024)"
    fill="#00a19d" filter="url(#bbburst-blur-2)"></use>
  <use xlink:href="#bbburst-shape-4" width="21.407693608889172" opacity="0.9297561601953046"
    transform="matrix(0.9626358786835402,0.27079912309896537,-0.27079912309896537,0.9626358786835402,522.5283718553403,-7.885332887134325)"
    fill="#ffa6d5"></use>
  <use xlink:href="#bbburst-shape-6" width="33.54772893252509" opacity="0.38189649225275435"
    transform="matrix(0.7893414056378667,-0.613954514068947,0.613954514068947,0.7893414056378667,414.6156958300485,43.597236963544105)"
    fill="#ff5c58" filter="url(#bbburst-blur-2)"></use>
  <use xlink:href="#bbburst-shape-1" width="39.62730403402701" opacity="0.5868212334711181"
    transform="matrix(0.9599974734383455,-0.2800086623517085,0.2800086623517085,0.9599974734383455,86.37957109515415,56.57862286833381)"
    fill="#2c2891" filter="url(#bbburst-blur-1)"></use>
  <use xlink:href="#bbburst-shape-10" width="44.45025027035574" opacity="0.3995469556039677"
    transform="matrix(0.9998959306616191,-0.014426636695178068,0.014426636695178068,0.9998959306616191,462.66676553255655,-254.1782055707062)"
    fill="none" stroke="#2c2891" filter="url(#bbburst-blur-2)"></use>
  <use xlink:href="#bbburst-shape-4" width="28.48145031311587" opacity="0.9037163201757166"
    transform="matrix(0.9765764933750039,0.21517051979158558,-0.21517051979158558,0.9765764933750039,433.47989323241745,25.862195884910818)"
    fill="#ffa6d5"></use>
  <use xlink:href="#bbburst-shape-8" width="38.95337694994202" opacity="0.36994545237334364"
    transform="matrix(0.9885770420675674,0.15071639558103544,-0.15071639558103544,0.9885770420675674,553.1278814370911,262.05791376705463)"
    fill="none" stroke="#2c2891" filter="url(#bbburst-blur-2)"></use>
  <use xlink:href="#bbburst-shape-4" width="33.9628154803484" opacity="0.7721287341817094"
    transform="matrix(0.9876065480141946,0.15695001216784382,-0.15695001216784382,0.9876065480141946,343.947891105809,12.29208236254459)"
    fill="#2c2891" filter="url(#bbburst-blur-1)"></use>
  <use xlink:href="#bbburst-shape-10" width="50.46572644010591" opacity="0.185261807526662"
    transform="matrix(0.9527765630243735,-0.8091457352983218,0.8091457352983218,0.9527765630243735,274.38237456139495,-252.41051706796253)"
    fill="none" stroke="#2c2891" filter="url(#bbburst-blur-3)"></use>
  <use xlink:href="#bbburst-shape-10" width="36.79595507913623" opacity="0.56888714734289"
    transform="matrix(0.9670142291687512,-0.25472235980605623,0.25472235980605623,0.9670142291687512,395.1913334833015,-138.4550506821051)"
    fill="none" stroke="#ffa6d5" filter="url(#bbburst-blur-1)"></use>
  <use xlink:href="#bbburst-shape-2" width="37.77042703077481" opacity="0.23004587748210203"
    transform="matrix(0.89470666580051,0.8729261035002531,-0.8729261035002531,0.89470666580051,707.4686777645804,-319.94251591765567)"
    fill="#2c2891" filter="url(#bbburst-blur-3)"></use>
  <use xlink:href="#bbburst-shape-8" width="56.39594680856838" opacity="0.15118132155833663"
    transform="matrix(1.0625670798434421,0.65837010931009,-0.65837010931009,1.0625670798434421,294.4340467212214,132.5094507517574)"
    fill="none" stroke="#2c2891" filter="url(#bbburst-blur-3)"></use>
  <use xlink:href="#bbburst-shape-2" width="23.94353764697863" opacity="0.815200979259139"
    transform="matrix(0.8449997489387575,0.5347667008083402,-0.5347667008083402,0.8449997489387575,680.4621851454199,87.79490311113852)"
    fill="#00a19d"></use>
  <use xlink:href="#bbburst-shape-10" width="43.24306535056206" opacity="0.6236310534733296"
    transform="matrix(0.8604273955287479,0.5095730536671024,-0.5095730536671024,0.8604273955287479,430.71184101299593,-24.54573828640332)"
    fill="none" stroke="#00a19d" filter="url(#bbburst-blur-1)"></use>
  <use xlink:href="#bbburst-shape-4" width="35.2037344240473" opacity="0.19467379102062465"
    transform="matrix(1.0683189746018642,0.6489950450547533,-0.6489950450547533,1.0683189746018642,604.1877439088342,321.82837129597493)"
    fill="#ffa6d5" filter="url(#bbburst-blur-3)"></use>
  <use xlink:href="#bbburst-shape-6" width="29.675175471546666" opacity="0.8772562470672722"
    transform="matrix(0.994133407163131,-0.10816084671554854,0.10816084671554854,0.994133407163131,358.0252697915405,56.80619550487552)"
    fill="#2c2891"></use>
  <use xlink:href="#bbburst-shape-4" width="42.81089366005486" opacity="0.11746600475920865"
    transform="matrix(1.058410646182509,0.6650315060563101,-0.6650315060563101,1.058410646182509,437.9630660448879,302.35984164354403)"
    fill="#ffbd9b" filter="url(#bbburst-blur-3)"></use>
  <use xlink:href="#bbburst-shape-8" width="44.69592642069071" opacity="-0.05387973515878808"
    transform="matrix(1.7499615688361065,-0.011597741015937347,0.011597741015937347,1.7499615688361065,685.9091640319303,-640.659261666808)"
    fill="none" stroke="#2c2891" filter="url(#bbburst-blur-4)"></use>
  <use xlink:href="#bbburst-shape-4" width="36.397975014873424" opacity="0.7481941978543847"
    transform="matrix(0.9971662587721912,0.07522933182124697,-0.07522933182124697,0.9971662587721912,503.4631448301316,-67.01271369519475)"
    fill="#ff5c58" filter="url(#bbburst-blur-1)"></use>
  <use xlink:href="#bbburst-shape-10" width="44.67768779308572" opacity="0.4625960945341544"
    transform="matrix(0.9088309374258617,0.41716462838743806,-0.41716462838743806,0.9088309374258617,517.5297437936326,-212.9339080352894)"
    fill="none" stroke="#ffbd9b" filter="url(#bbburst-blur-2)"></use>
  <use xlink:href="#bbburst-shape-4" width="35.63197097140101" opacity="0.7514904378829048"
    transform="matrix(0.9134338368371683,-0.406987254985865,0.406987254985865,0.9134338368371683,189.71254270845208,149.2864306490403)"
    fill="#ffa6d5" filter="url(#bbburst-blur-1)"></use>
  <use xlink:href="#bbburst-shape-6" width="45.67954635468895" opacity="0.38321896241088815"
    transform="matrix(0.8700412414860821,-0.4929789428701361,0.4929789428701361,0.8700412414860821,436.6578256169498,175.76296815820695)"
    fill="#ffa6d5" filter="url(#bbburst-blur-2)"></use>
</svg>