<svg xmlns="http://www.w3.org/2000/svg" version="1.1" xmlns:xlink="http://www.w3.org/1999/xlink"
  xmlns:svgjs="http://svgjs.dev/svgjs" viewBox="0 0 800 800">
  <defs>
    <filter id="llleaves-blur-2" x="-100%" y="-100%" width="400%" height="400%">
      <feGaussianBlur in="SourceGraphic" stdDeviation="2"></feGaussianBlur>
    </filter>
    <filter id="llleaves-blur-3" x="-100%" y="-100%" width="400%" height="400%">
      <feGaussianBlur in="SourceGraphic" stdDeviation="4"></feGaussianBlur>
    </filter>
    <filter id="llleaves-blur-4" x="-100%" y="-100%" width="400%" height="400%">
      <feGaussianBlur in="SourceGraphic" stdDeviation="12"></feGaussianBlur>
    </filter>
  </defs>
  <g fill="currentColor">
    <path d="M436 218H486C514 218 536 240 536 268H486C458 268 436 246 436 218Z "
      transform="matrix(-0.2930532944402419,0.15581920063334515,-0.15581920063334515,-0.2930532944402419,666.2879668518605,238.48381904117304)"
      filter="url(#llleaves-blur-2)" opacity="0.51"></path>
    <path d="M-7 169H43C71 169 93 191 93 219H43C15 219 -7 197 -7 169Z "
      transform="matrix(-0.33408555347348545,0.10214020392894255,-0.10214020392894255,-0.33408555347348545,77.18087836157473,254.42056860491164)"
      filter="url(#llleaves-blur-2)" opacity="0.54"></path>
    <path d="M436 312H486C514 312 536 334 536 362H486C458 362 436 340 436 312Z "
      transform="matrix(-0.2930532944402419,0.15581920063334515,-0.15581920063334515,-0.2930532944402419,680.9349717113948,360.03082871855577)"
      filter="url(#llleaves-blur-2)" opacity="0.51"></path>
    <path d="M576 730H626C654 730 676 752 676 780H626C598 780 576 758 576 730Z "
      transform="matrix(-0.2455492727185984,-0.3929609797124905,0.3929609797124905,-0.2455492727185984,483.0283050389122,1186.3832742025609)"
      opacity="0.71"></path>
    <path d="M545 106H595C623 106 645 128 645 156H595C567 156 545 134 545 106Z "
      transform="matrix(-0.36241889615557377,-0.21776324229132316,0.21776324229132316,-0.36241889615557377,782.1122584724033,308.0460045597174)"
      opacity="0.65"></path>
    <path d="M354 723H404C432 723 454 745 454 773H404C376 773 354 751 354 723Z "
      transform="matrix(-0.09659299518921832,0.25163335549345367,-0.25163335549345367,-0.09659299518921832,631.2453199655477,718.59168478218)"
      filter="url(#llleaves-blur-3)" opacity="0.41"></path>
    <path d="M272 175H322C350 175 372 197 372 225H322C294 225 272 203 272 175Z "
      transform="matrix(1.4578806947489267e-17,0.23808998574347479,-0.23808998574347479,1.4578806947489267e-17,369.61799714869494,123.33502459060112)"
      filter="url(#llleaves-blur-3)" opacity="0.36"></path>
    <path d="M108 23H158C186 23 208 45 208 73H158C130 73 108 51 108 23Z "
      transform="matrix(-0.04401401724667029,0.2496158958193816,-0.2496158958193816,-0.04401401724667029,176.93577772430422,10.673361288377876)"
      filter="url(#llleaves-blur-3)" opacity="0.39"></path>
    <path d="M630 96H680C708 96 730 118 730 146H680C652 146 630 124 630 96Z "
      transform="matrix(-0.008917922128184203,-0.5109074165497739,0.5109074165497739,-0.008917922128184203,624.2443896446426,469.49611183135653)"
      opacity="0.79"></path>
    <path d="M80 125H130C158 125 180 147 180 175H130C102 175 80 153 80 125Z "
      transform="matrix(-0.15147869831781594,0.24241659133219343,-0.24241659133219343,-0.15147869831781594,186.05471948114507,141.20764787448724)"
      filter="url(#llleaves-blur-3)" opacity="0.44"></path>
    <path d="M-7 300H43C71 300 93 322 93 350H43C15 350 -7 328 -7 300Z "
      transform="matrix(-0.33408555347348545,0.10214020392894255,-0.10214020392894255,-0.33408555347348545,90.5612450762662,429.1857761099382)"
      filter="url(#llleaves-blur-2)" opacity="0.54"></path>
    <path d="M707 24H757C785 24 807 46 807 74H757C729 74 707 52 707 24Z "
      transform="matrix(0.45891235864135727,-0.37161990066363226,0.37161990066363226,0.45891235864135727,391.39396937597456,307.8295592289431)"
      opacity="0.91"></path>
    <path d="M476 519H526C554 519 576 541 576 569H526C498 569 476 547 476 519Z "
      transform="matrix(-0.35955693926625654,0.05053243236751687,-0.05053243236751687,-0.35955693926625654,742.61659326198,713.0189155355297)"
      filter="url(#llleaves-blur-2)" opacity="0.56"></path>
    <path d="M483 409H533C561 409 583 431 583 459H533C505 459 483 437 483 409Z "
      transform="matrix(-0.35955693926625654,0.05053243236751687,-0.05053243236751687,-0.35955693926625654,746.574924276417,563.1139251896689)"
      filter="url(#llleaves-blur-2)" opacity="0.56"></path>
    <path d="M524 306H574C602 306 624 328 624 356H574C546 356 524 334 524 306Z "
      transform="matrix(-0.37444411276756645,-0.17460615733457005,0.17460615733457005,-0.37444411276756645,731.1362826508405,555.1649356361078)"
      opacity="0.63"></path>
    <path d="M92 490H142C170 490 192 512 192 540H142C114 540 92 518 92 490Z "
      transform="matrix(-0.13169287318555656,0.24767827189757474,-0.24767827189757474,-0.13169287318555656,288.2546980196,547.651515081106)"
      filter="url(#llleaves-blur-3)" opacity="0.43"></path>
    <path d="M695 724H745C773 724 795 746 795 774H745C717 774 695 752 695 724Z "
      transform="matrix(0.27943288294515034,-0.48399195056644706,0.48399195056644706,0.27943288294515034,174.3125312315941,900.2787738460854)"
      opacity="0.86"></path>
    <path d="M704 613H754C782 613 804 635 804 663H754C726 663 704 641 704 613Z "
      transform="matrix(0.3420654276252362,-0.45393615438544116,0.45393615438544116,0.3420654276252362,206.47140107266046,762.0301175817219)"
      opacity="0.87"></path>
    <path d="M533 205H583C611 205 633 227 633 255H583C555 255 533 233 533 205Z "
      transform="matrix(-0.37444411276756645,-0.17460615733457005,0.17460615733457005,-0.37444411276756645,761.1415015565401,417.9175356625947)"
      opacity="0.63"></path>
    <path d="M74 247H124C152 247 174 269 174 297H124C96 297 74 275 74 247Z "
      transform="matrix(-0.1666487194149334,0.23799903645856324,-0.23799903645856324,-0.1666487194149334,209.40017912418097,287.81657116)"
      filter="url(#llleaves-blur-3)" opacity="0.44"></path>
    <path d="M409 630H459C487 630 509 652 509 680H459C431 680 409 658 409 630Z "
      transform="matrix(-0.20720066512489504,0.22219550997624,-0.22219550997624,-0.20720066512489504,699.643164326764,688.7286965777121)"
      filter="url(#llleaves-blur-2)" opacity="0.46"></path>
    <path d="M364 360H414C442 360 464 382 464 410H414C386 410 364 388 364 360Z "
      transform="matrix(-0.09659299518921832,0.25163335549345367,-0.25163335549345367,-0.09659299518921832,550.8683418733161,318.0120939735592)"
      filter="url(#llleaves-blur-3)" opacity="0.41"></path>
    <path d="M695 513H745C773 513 795 535 795 563H745C717 563 695 541 695 513Z "
      transform="matrix(0.27943288294515034,-0.48399195056644706,0.48399195056644706,0.27943288294515034,276.43483280111445,748.2391121475122)"
      opacity="0.86"></path>
    <path d="M710 124H760C788 124 810 146 810 174H760C732 174 710 152 710 124Z "
      transform="matrix(0.3690295253337261,-0.43979226258980425,0.43979226258980425,0.3690295253337261,414.0085136204873,428.2567202935261)"
      opacity="0.88"></path>
    <path d="M191 646H241C269 646 291 668 291 696H241C213 696 191 674 191 646Z "
      transform="matrix(-0.008375536849507832,0.2398439946029009,-0.2398439946029009,-0.008375536849507832,403.9538247592779,618.8175825267206)"
      filter="url(#llleaves-blur-3)" opacity="0.37"></path>
    <path d="M512 625H562C590 625 612 647 612 675H562C534 675 512 653 512 625Z "
      transform="matrix(-0.3844651633139455,-0.09585793133184323,0.09585793133184323,-0.3844651633139455,715.7617664167393,953.7745135625605)"
      filter="url(#llleaves-blur-2)" opacity="0.61"></path>
    <path d="M274 489H324C352 489 374 511 374 539H324C296 539 274 517 274 489Z "
      transform="matrix(1.4578806947489267e-17,0.23808998574347479,-0.23808998574347479,1.4578806947489267e-17,446.378252672146,436.85884461911417)"
      filter="url(#llleaves-blur-3)" opacity="0.36"></path>
    <path d="M708 225H758C786 225 808 247 808 275H758C730 275 708 253 708 225Z "
      transform="matrix(0.3420654276252362,-0.45393615438544116,0.45393615438544116,0.3420654276252362,385.2303672637107,508.56724811785534)"
      opacity="0.87"></path>
    <path d="M0 37H50C78 37 100 59 100 87H50C22 87 0 65 0 37Z "
      transform="matrix(-0.32658937206369565,0.11245373900846291,-0.11245373900846291,-0.32658937206369565,73.30160042170948,76.62585411752599)"
      filter="url(#llleaves-blur-2)" opacity="0.53"></path>
    <path d="M591 552H641C669 552 691 574 691 602H641C613 602 591 580 591 552Z "
      transform="matrix(-0.1795898054876097,-0.44450036656997216,0.44450036656997216,-0.1795898054876097,499.6403538066839,965.548052737703)"
      opacity="0.74"></path>
    <path d="M617 274H667C695 274 717 296 717 324H667C639 324 617 302 617 274Z "
      transform="matrix(-0.017783387546904447,-0.509249590021393,0.509249590021393,-0.017783387546904447,526.5958920773887,643.9867094207935)"
      opacity="0.78"></path>
    <path d="M92 611H142C170 611 192 633 192 661H142C114 661 92 639 92 611Z "
      transform="matrix(-0.13169287318555656,0.24767827189757474,-0.24767827189757474,-0.13169287318555656,318.2237689192066,684.5863527365584)"
      filter="url(#llleaves-blur-3)" opacity="0.43"></path>
    <path d="M123 726H173C201 726 223 748 223 776H173C145 776 123 754 123 726Z "
      transform="matrix(-0.07688176752143339,0.2514689306111695,-0.2514689306111695,-0.07688176752143339,375.1537126701962,765.2340824128642)"
      filter="url(#llleaves-blur-3)" opacity="0.40"></path>
    <path d="M703 323H753C781 323 803 345 803 373H753C725 373 703 351 703 323Z "
      transform="matrix(0.3420654276252362,-0.45393615438544116,0.45393615438544116,0.3420654276252362,337.4549512720637,570.775155438655)"
      opacity="0.87"></path>
    <path d="M625 182H675C703 182 725 204 725 232H675C647 232 625 210 625 182Z "
      transform="matrix(-0.017783387546904447,-0.509249590021393,0.509249590021393,-0.017783387546904447,581.5891214597322,554.4246344866494)"
      opacity="0.78"></path>
    <path d="M582 461H632C660 461 682 483 682 511H632C604 511 582 489 582 461Z "
      transform="matrix(-0.2455492727185984,-0.3929609797124905,0.3929609797124905,-0.2455492727185984,596.2081042178837,853.6882857195328)"
      opacity="0.71"></path>
    <path d="M524 18H574C602 18 624 40 624 68H574C546 68 524 46 524 18Z "
      transform="matrix(-0.37929237273893057,-0.15324406584577163,0.15324406584577163,-0.37929237273893057,785.1243271207782,147.27166582324696)"
      opacity="0.63"></path>
    <path d="M697 419H747C775 419 797 441 797 469H747C719 469 697 447 697 419Z "
      transform="matrix(0.27943288294515034,-0.48399195056644706,0.48399195056644706,0.27943288294515034,323.3712103884702,681.4737870454892)"
      opacity="0.86"></path>
    <path d="M434 28H484C512 28 534 50 534 78H484C456 78 434 56 434 28Z "
      transform="matrix(-0.23155611994403158,0.20849406687952182,-0.20849406687952182,-0.23155611994403158,607.1233475975259,-35.63865401265488)"
      filter="url(#llleaves-blur-2)" opacity="0.48"></path>
    <path d="M292 616H342C370 616 392 638 392 666H342C314 666 292 644 292 616Z "
      transform="matrix(-0.012647254501077492,0.24132399185954645,-0.24132399185954645,-0.012647254501077492,501.0140398213378,566.5740849192258)"
      filter="url(#llleaves-blur-3)" opacity="0.37"></path>
    <path d="M377 450H427C455 450 477 472 477 500H427C399 500 377 478 377 450Z "
      transform="matrix(-0.13135189773368122,0.24703699034119933,-0.24703699034119933,-0.13135189773368122,600.4298307443516,431.90735654780644)"
      filter="url(#llleaves-blur-3)" opacity="0.43"></path>
    <path d="M368 135H418C446 135 468 157 468 185H418C390 185 368 163 368 135Z "
      transform="matrix(-0.09143804002434706,0.2512239502460816,-0.2512239502460816,-0.09143804002434706,496.41693276955016,69.61847520103342)"
      filter="url(#llleaves-blur-3)" opacity="0.41"></path>
    <path d="M163 204H213C241 204 263 226 263 254H213C185 254 163 232 163 204Z "
      transform="matrix(-0.03469345408655161,0.2468567527723762,-0.2468567527723762,-0.03469345408655161,276.91990210530963,184.36431264530418)"
      filter="url(#llleaves-blur-3)" opacity="0.38"></path>
    <path d="M0 531H50C78 531 100 553 100 581H50C22 581 0 559 0 531Z "
      transform="matrix(-0.33408555347348545,0.10214020392894255,-0.10214020392894255,-0.33408555347348545,123.4942310581663,736.6445575348108)"
      filter="url(#llleaves-blur-2)" opacity="0.54"></path>
    <path d="M220 14H270C298 14 320 36 320 64H270C242 64 220 42 220 14Z "
      transform="matrix(0.07349250552367229,0.19145452247666744,-0.19145452247666744,0.07349250552367229,257.6237498851985,-15.558928784123424)"
      filter="url(#llleaves-blur-3)" opacity="0.31"></path>
    <path d="M246 728H296C324 728 346 750 346 778H296C268 778 246 756 246 728Z "
      transform="matrix(0.008201508969179734,0.23486048814353422,-0.23486048814353422,0.008201508969179734,470.42230091720404,677.3055592557215)"
      filter="url(#llleaves-blur-3)" opacity="0.36"></path>
    <path d="M-4 420H46C74 420 96 442 96 470H46C18 470 -4 448 -4 420Z "
      transform="matrix(-0.33408555347348545,0.10214020392894255,-0.10214020392894255,-0.33408555347348545,106.82032620815977,588.9696219149697)"
      filter="url(#llleaves-blur-2)" opacity="0.54"></path>
    <path d="M179 429H229C257 429 279 451 279 479H229C201 479 179 457 179 429Z "
      transform="matrix(-0.017025028643287705,0.24346925263861846,-0.24346925263861846,-0.017025028643287705,343.4337722572456,405.974904149809)"
      filter="url(#llleaves-blur-3)" opacity="0.37"></path>
    <path d="M184 107H234C262 107 284 129 284 157H234C206 157 184 135 184 107Z "
      transform="matrix(0.03868846213005011,0.21941317190712134,-0.21941317190712134,0.03868846213005011,253.9094385533083,75.55044077256699)"
      filter="url(#llleaves-blur-3)" opacity="0.34"></path>
    <path d="M285 81H335C363 81 385 103 385 131H335C307 131 285 109 285 81Z "
      transform="matrix(0.052156235006100525,0.2091872329274826,-0.2091872329274826,0.052156235006100525,339.7015079632695,30.393716058646675)"
      filter="url(#llleaves-blur-3)" opacity="0.33"></path>
    <path d="M600 371H650C678 371 700 393 700 421H650C622 421 600 399 600 371Z "
      transform="matrix(-0.1795898054876097,-0.44450036656997216,0.44450036656997216,-0.1795898054876097,590.7112284052373,756.0428012435754)"
      opacity="0.74"></path>
    <path d="M269 373H319C347 373 369 395 369 423H319C291 423 269 401 269 373Z "
      transform="matrix(1.4578806947489267e-17,0.23808998574347479,-0.23808998574347479,1.4578806947489267e-17,413.759814325903,322.04929454783155)"
      filter="url(#llleaves-blur-3)" opacity="0.36"></path>
    <path d="M466 726H516C544 726 566 748 566 776H516C488 776 466 754 466 726Z "
      transform="matrix(-0.33018553403686335,0.10728378341975763,-0.10728378341975763,-0.33018553403686335,766.9458569112596,943.6109038170894)"
      filter="url(#llleaves-blur-2)" opacity="0.53"></path>
    <path d="M81 371H131C159 371 181 393 181 421H131C103 421 81 399 81 371Z "
      transform="matrix(-0.1666487194149334,0.23799903645856324,-0.23799903645856324,-0.1666487194149334,247.07860068094732,430.8150191122418)"
      filter="url(#llleaves-blur-3)" opacity="0.44"></path>
    <path d="M366 543H416C444 543 466 565 466 593H416C388 593 366 571 366 543Z "
      transform="matrix(-0.09659299518921832,0.25163335549345367,-0.25163335549345367,-0.09659299518921832,599.1104319189966,518.1853453821993)"
      filter="url(#llleaves-blur-3)" opacity="0.41"></path>
    <path d="M163 318H213C241 318 263 340 263 368H213C185 368 163 346 163 318Z "
      transform="matrix(-0.03469345408655161,0.2468567527723762,-0.2468567527723762,-0.03469345408655161,305.0615719213605,302.3193664111711)"
      filter="url(#llleaves-blur-3)" opacity="0.38"></path>
    <path d="M616 15H666C694 15 716 37 716 65H666C638 65 616 43 616 15Z "
      transform="matrix(-0.04404825399495514,-0.5034738470076531,0.5034738470076531,-0.04404825399495514,675.197183280334,377.07551226689515)"
      opacity="0.78"></path>
    <path d="M246 269H296C324 269 346 291 346 319H296C268 319 246 297 246 269Z "
      transform="matrix(0.008201508969179734,0.23486048814353422,-0.23486048814353422,0.008201508969179734,362.6213368593218,222.07005187257502)"
      filter="url(#llleaves-blur-3)" opacity="0.36"></path>
    <path d="M342 256H392C420 256 442 278 442 306H392C364 306 342 284 342 256Z "
      transform="matrix(-0.06743674687671107,0.2516773656410474,-0.2516773656410474,-0.06743674687671107,489.15654452080514,201.29219854106523)"
      filter="url(#llleaves-blur-3)" opacity="0.40"></path>
    <path d="M343 18H393C421 18 443 40 443 68H393C365 68 343 46 343 18Z "
      transform="matrix(0.01999365578178167,0.2285285313091713,-0.2285285313091713,0.01999365578178167,394.9692201240542,-47.671440003120935)"
      filter="url(#llleaves-blur-3)" opacity="0.35"></path>
    <path d="M616 647H666C694 647 716 669 716 697H666C638 697 616 675 616 647Z "
      transform="matrix(-0.10288511990611618,-0.48403643292761417,0.48403643292761417,-0.10288511990611618,409.24900693011665,1063.507064906701)"
      opacity="0.76"></path>
    <path d="M187 545H237C265 545 287 567 287 595H237C209 595 187 573 187 545Z "
      transform="matrix(-0.008375536849507832,0.2398439946029009,-0.2398439946029009,-0.008375536849507832,375.6960791569869,517.931029283332)"
      filter="url(#llleaves-blur-3)" opacity="0.37"></path>
    <path d="M460 123H510C538 123 560 145 560 173H510C482 173 460 151 460 123Z "
      transform="matrix(-0.29767925877305906,0.15167515813151136,-0.15167515813151136,-0.29767925877305906,684.2643453777239,114.70219965134194)"
      filter="url(#llleaves-blur-2)" opacity="0.51"></path>
    <path d="M10 728H60C88 728 110 750 110 778H60C32 778 10 756 10 728Z "
      transform="matrix(-0.3052257288649027,0.14232909483564535,-0.14232909483564535,-0.3052257288649027,185.48735214313513,974.2952281451331)"
      filter="url(#llleaves-blur-2)" opacity="0.52"></path>
    <path d="M-3 633H47C75 633 97 655 97 683H47C19 683 -3 661 -3 633Z "
      transform="matrix(-0.33408555347348545,0.10214020392894255,-0.10214020392894255,-0.33408555347348545,129.91027519849803,873.027704600893)"
      filter="url(#llleaves-blur-2)" opacity="0.54"></path>
  </g>
</svg>