<svg id="Layer_1" data-name="Layer 1" xmlns="http://www.w3.org/2000/svg" viewBox="0 0 468 125">
  <defs>
    <style>
      .cls-1,
      .cls-5 {
        fill: var(--color-logo);
      }

      .cls-2 {
        fill: #0076a0;
      }

      .cls-2,
      .cls-3,
      .cls-4,
      .cls-5 {
        fill-rule: evenodd;
      }

      .cls-3 {
        fill: #14321e;
      }

      .cls-4 {
        fill: #333;
      }
    </style>
  </defs>
  <path class="cls-1"
    d="M199.66,29.63l.77-3.36h1.62v.22c-.18,3.8-.27,6.6-.27,8.38,0,.5,0,1.67.07,3.5,0,1.17,0,2.12.07,2.85h-1.7c-.44-5-2.07-8.92-4.86-11.75a14.59,14.59,0,0,0-10.85-4.25q-7.63,0-11.72,5.65T168.7,47.08q0,10.71,4.55,16.65t12.69,5.93a15.16,15.16,0,0,0,9.31-2.82,15.33,15.33,0,0,0,5.44-8.09h1.9a16.85,16.85,0,0,1-6.27,10.09q-4.73,3.5-12,3.5-10.26,0-16.55-6.71T161.45,48q0-11,6.34-18t16.49-6.92a21.78,21.78,0,0,1,8.56,1.66,19.53,19.53,0,0,1,6.82,4.89Z" />
  <path class="cls-1"
    d="M302.66,27.08l.57-2.48h1.43c0,1.35-.07,2.55-.09,3.59s-.05,1.89-.05,2.58c0,1,0,2.14.05,3.31s.06,2.44.09,3.79H303.1c-.37-4.09-1.63-7.22-3.75-9.36s-5-3.22-8.69-3.22a9.91,9.91,0,0,0-7.06,2.55,8.53,8.53,0,0,0-2.73,6.53A7.75,7.75,0,0,0,282.92,40c1.37,1.43,4,2.86,8,4.31Q300.83,48,303.68,51a10.94,10.94,0,0,1,2.87,7.83A12.14,12.14,0,0,1,302,68.55c-3,2.53-6.91,3.79-11.66,3.79a18.78,18.78,0,0,1-6.81-1.22,20.84,20.84,0,0,1-6.11-3.67l-.72,3h-1.5c0-1.57,0-3.21.06-4.94s.07-2.65.07-2.8,0-1.08-.07-2.73-.06-3.22-.06-4.72h1.9c.22,4.73,1.48,8.39,3.81,11a12.09,12.09,0,0,0,9.49,3.92,10.3,10.3,0,0,0,7.32-2.58,8.94,8.94,0,0,0,2.76-6.86,7.31,7.31,0,0,0-2.09-5.37c-1.39-1.41-3.93-2.82-7.64-4.21-.39-.15-1-.37-1.82-.65a40.64,40.64,0,0,1-8.87-4.08,11.92,11.92,0,0,1-3.7-4.15,12.12,12.12,0,0,1-1.16-5.56,12.91,12.91,0,0,1,4-9.93q4-3.72,10.69-3.73a22.17,22.17,0,0,1,6.8,1,20.51,20.51,0,0,1,5.9,3Z" />
  <path class="cls-1"
    d="M268.34,27.08l.58-2.48h1.43c0,1.35-.07,2.55-.1,3.59s0,1.89,0,2.58c0,1,0,2.14,0,3.31s.06,2.44.1,3.79h-1.56c-.38-4.09-1.63-7.22-3.76-9.36s-5-3.22-8.69-3.22a10,10,0,0,0-7.06,2.55,8.56,8.56,0,0,0-2.73,6.53A7.76,7.76,0,0,0,248.61,40q2.05,2.15,8,4.31Q266.51,48,269.37,51a10.94,10.94,0,0,1,2.87,7.83,12.12,12.12,0,0,1-4.52,9.72c-3,2.53-6.9,3.79-11.66,3.79a18.77,18.77,0,0,1-6.8-1.22,20.84,20.84,0,0,1-6.11-3.67l-.72,3h-1.51c0-1.57,0-3.21.07-4.94s.07-2.65.07-2.8,0-1.08-.07-2.73-.07-3.22-.07-4.72h1.9c.23,4.73,1.49,8.39,3.82,11a12.07,12.07,0,0,0,9.48,3.92,10.31,10.31,0,0,0,7.33-2.58,8.94,8.94,0,0,0,2.76-6.86,7.35,7.35,0,0,0-2.09-5.37c-1.39-1.41-3.93-2.82-7.64-4.21-.39-.15-1-.37-1.82-.65a40.64,40.64,0,0,1-8.87-4.08,11.92,11.92,0,0,1-3.7-4.15,12.12,12.12,0,0,1-1.17-5.56,12.92,12.92,0,0,1,4-9.93c2.67-2.48,6.25-3.73,10.68-3.73a22.23,22.23,0,0,1,6.81,1,20.33,20.33,0,0,1,5.89,3Z" />
  <polygon class="cls-2" points="220.64 28.55 202.33 64.96 220.64 50.78 220.64 28.55" />
  <polygon class="cls-3" points="220.64 28.55 238.75 65.09 220.64 50.78 220.64 28.55" />
  <polygon class="cls-4"
    points="201.81 66.86 202.32 64.97 220.62 54.8 238.75 65.1 239.29 66.82 220.62 56.35 201.81 66.86" />
  <polygon class="cls-5" points="202.32 64.97 220.64 50.78 238.75 65.09 220.62 54.8 202.32 64.97" />
  <path class="cls-1"
    d="M48.31,87.46a10.43,10.43,0,0,0-3.48-.63,3.81,3.81,0,0,0-1.71.35,2.83,2.83,0,0,0-1.22,1.14,6.13,6.13,0,0,0-.72,2.05,20.4,20.4,0,0,0,0,6.24,6.11,6.11,0,0,0,.72,2.06,2.81,2.81,0,0,0,1.22,1.13,4,4,0,0,0,1.71.34,8.38,8.38,0,0,0,1.92-.22,9.06,9.06,0,0,0,1.77-.64l.48,1.64a8.33,8.33,0,0,1-2,.73,10.16,10.16,0,0,1-2.41.27,7.24,7.24,0,0,1-2.56-.41,4.15,4.15,0,0,1-1.87-1.38,6.61,6.61,0,0,1-1.15-2.59,18.29,18.29,0,0,1-.38-4.06,16.94,16.94,0,0,1,.4-4,6.73,6.73,0,0,1,1.15-2.6,4.13,4.13,0,0,1,1.88-1.39,7.18,7.18,0,0,1,2.55-.41,10,10,0,0,1,1.07,0c.37,0,.74.09,1.09.16a9.51,9.51,0,0,1,1,.25c.32.1.61.2.87.31Zm11.52,14H51.22v-16h8.61v1.78H53.35v5.16h4.9v1.77h-4.9v5.48h6.48Zm12.51-16v16H70.21L64.32,89.72v11.75H62.19v-16H64.3l5.89,11.82V85.5Zm11.8,1.78h-3.9v14.19H78.09V87.28H74.22V85.5h9.92Zm5.92-1.78a11.2,11.2,0,0,1,2.39.23,3.8,3.8,0,0,1,1.68.78,3.32,3.32,0,0,1,1,1.47,7.18,7.18,0,0,1,.32,2.31,5.62,5.62,0,0,1-.63,3,3.23,3.23,0,0,1-1.9,1.38l.94,1.93L96,101.47H93.61L90.85,94.9l-.5,0H88.17v6.55H86v-16Zm-1.89,1.78v5.93h2.06a3.23,3.23,0,0,0,2.27-.64,3.08,3.08,0,0,0,.66-2.26A3.33,3.33,0,0,0,92.5,88a3,3,0,0,0-2.27-.7Zm18.71,14.19H98.27v-16h8.61v1.78H100.4v5.16h4.9v1.77h-4.9v5.48h6.48Zm30.43,0,4.51-16h2.09l4.51,16h-2.36L145,97.36h-4.3l-1,4.11Zm7.28-5.75-.75-3-1-4.43-1,4.43-.76,3Zm14.16,5.75h-8.61v-16h8.61v1.78h-6.48v5.16h4.9v1.77h-4.9v5.48h6.48Zm6.38-16a11.2,11.2,0,0,1,2.39.23,3.8,3.8,0,0,1,1.68.78,3.32,3.32,0,0,1,1,1.47,7.18,7.18,0,0,1,.32,2.31,5.62,5.62,0,0,1-.63,3,3.23,3.23,0,0,1-1.9,1.38l.94,1.93,2.16,4.91h-2.39l-2.76-6.57-.5,0h-2.18v6.55h-2.13v-16Zm-1.89,1.78v5.93h2.06a3.18,3.18,0,0,0,2.26-.64,3,3,0,0,0,.67-2.26,3.28,3.28,0,0,0-.67-2.33,3,3,0,0,0-2.26-.7Zm15.28-2.23a7.76,7.76,0,0,1,2.64.4A4,4,0,0,1,183,86.81a6.72,6.72,0,0,1,1.12,2.6,19.36,19.36,0,0,1,.36,4.07,19.06,19.06,0,0,1-.36,4.06,6.6,6.6,0,0,1-1.12,2.59,4,4,0,0,1-1.87,1.38,8.67,8.67,0,0,1-5.27,0,4,4,0,0,1-1.87-1.38,6.6,6.6,0,0,1-1.12-2.59,19,19,0,0,1-.37-4.06,19.29,19.29,0,0,1,.37-4.07,6.72,6.72,0,0,1,1.12-2.6,3.91,3.91,0,0,1,1.87-1.36,7.74,7.74,0,0,1,2.63-.4Zm0,1.78a3.76,3.76,0,0,0-1.66.34,2.75,2.75,0,0,0-1.17,1.13,6.16,6.16,0,0,0-.67,2,22.38,22.38,0,0,0,0,6.26,6.15,6.15,0,0,0,.67,2.06,2.75,2.75,0,0,0,1.17,1.13,4.25,4.25,0,0,0,3.33,0,2.75,2.75,0,0,0,1.17-1.13,6.38,6.38,0,0,0,.67-2.06,22.38,22.38,0,0,0,0-6.26,6.4,6.4,0,0,0-.67-2,2.75,2.75,0,0,0-1.17-1.13,3.74,3.74,0,0,0-1.67-.34Zm8.08,12.4a11.65,11.65,0,0,0,2.32.7,12.2,12.2,0,0,0,2.1.21,4,4,0,0,0,1.42-.22,2.55,2.55,0,0,0,1-.63,2.66,2.66,0,0,0,.54-.94,3.89,3.89,0,0,0,.17-1.17,2.69,2.69,0,0,0-.65-1.89,4.75,4.75,0,0,0-2.37-1.12,13.62,13.62,0,0,1-2.06-.64,5.17,5.17,0,0,1-1.51-.9,3.41,3.41,0,0,1-.91-1.28,5.22,5.22,0,0,1,.93-5.15,5.06,5.06,0,0,1,3.59-1.15,13.25,13.25,0,0,1,2,.18,11.22,11.22,0,0,1,2.36.64L195,87.51a13.77,13.77,0,0,0-1.87-.49,9.62,9.62,0,0,0-1.86-.19,2.88,2.88,0,0,0-2.14.69,2.76,2.76,0,0,0-.68,2,2.41,2.41,0,0,0,.19,1,2,2,0,0,0,.61.73,4.28,4.28,0,0,0,1.05.53c.43.15.94.3,1.52.44a6.42,6.42,0,0,1,3.42,1.7,4.38,4.38,0,0,1,1,3.09A6.25,6.25,0,0,1,196,99a4,4,0,0,1-.91,1.54,4.08,4.08,0,0,1-1.6,1,6.89,6.89,0,0,1-2.36.36c-.37,0-.76,0-1.19-.06s-.86-.11-1.31-.2a11,11,0,0,1-1.29-.32,9.63,9.63,0,0,1-1.18-.44ZM203.16,85.5a9.61,9.61,0,0,1,2.28.24,3.69,3.69,0,0,1,1.6.82,3.57,3.57,0,0,1,1,1.54,9.31,9.31,0,0,1,0,4.84,3.35,3.35,0,0,1-1,1.51,3.44,3.44,0,0,1-1.6.78,10.88,10.88,0,0,1-2.28.22h-2.41v6h-2.13v-16Zm-2.41,1.78v6.39h2.47a2.86,2.86,0,0,0,2.17-.7,3.6,3.6,0,0,0,.65-2.45,3.8,3.8,0,0,0-.65-2.51,2.79,2.79,0,0,0-2.17-.73Zm7.88,14.19,4.51-16h2.09l4.51,16h-2.36l-1-4.11H212l-1,4.11Zm7.28-5.75-.75-3-1-4.43-1,4.43-.76,3Zm14.18-8.26a10.56,10.56,0,0,0-3.48-.63,3.86,3.86,0,0,0-1.72.35,2.81,2.81,0,0,0-1.21,1.14,6.13,6.13,0,0,0-.72,2.05,20.4,20.4,0,0,0,0,6.24,6.11,6.11,0,0,0,.72,2.06,2.78,2.78,0,0,0,1.21,1.13,4,4,0,0,0,1.72.34,8.23,8.23,0,0,0,1.91-.22,8.92,8.92,0,0,0,1.78-.64l.48,1.64a8.51,8.51,0,0,1-2,.73,10.25,10.25,0,0,1-2.42.27,7.18,7.18,0,0,1-2.55-.41,4.18,4.18,0,0,1-1.88-1.38,6.76,6.76,0,0,1-1.14-2.59,21.44,21.44,0,0,1,0-8.09,6.73,6.73,0,0,1,1.16-2.6,4.1,4.1,0,0,1,1.87-1.39,7.2,7.2,0,0,1,2.56-.41,9.86,9.86,0,0,1,1.06,0c.38,0,.74.09,1.1.16a9.51,9.51,0,0,1,1,.25c.32.1.61.2.87.31Zm11.52,14H233v-16h8.61v1.78h-6.48v5.16H240v1.77h-4.9v5.48h6.48Zm20.66-2.24a11.54,11.54,0,0,0,2.33.7,12,12,0,0,0,2.09.21,4,4,0,0,0,1.42-.22,2.47,2.47,0,0,0,1-.63,2.39,2.39,0,0,0,.54-.94,3.6,3.6,0,0,0,.17-1.17,2.65,2.65,0,0,0-.65-1.89,4.66,4.66,0,0,0-2.37-1.12,13.62,13.62,0,0,1-2.06-.64,5,5,0,0,1-1.5-.9,3.44,3.44,0,0,1-.92-1.28,4.58,4.58,0,0,1-.31-1.74,4.45,4.45,0,0,1,1.24-3.41,5.07,5.07,0,0,1,3.6-1.15,13.13,13.13,0,0,1,1.94.18,11.06,11.06,0,0,1,2.36.64l-.46,1.64a14,14,0,0,0-1.86-.49,9.8,9.8,0,0,0-1.87-.19,2.88,2.88,0,0,0-2.14.69,2.81,2.81,0,0,0-.68,2,2.41,2.41,0,0,0,.2,1,1.91,1.91,0,0,0,.61.73,4,4,0,0,0,1,.53c.43.15.93.3,1.51.44a6.39,6.39,0,0,1,3.42,1.7,4.38,4.38,0,0,1,1.05,3.09,6.25,6.25,0,0,1-.29,1.93,3.9,3.9,0,0,1-.9,1.54,4.12,4.12,0,0,1-1.61,1,6.85,6.85,0,0,1-2.36.36c-.36,0-.76,0-1.19-.06s-.86-.11-1.3-.2a10.73,10.73,0,0,1-1.3-.32,9.63,9.63,0,0,1-1.18-.44Zm20.64,2.24H274.3v-16h8.61v1.78h-6.48v5.16h4.9v1.77h-4.9v5.48h6.48Zm10.94-14a10.43,10.43,0,0,0-3.48-.63,3.81,3.81,0,0,0-1.71.35,2.83,2.83,0,0,0-1.22,1.14,6.13,6.13,0,0,0-.72,2.05,20.4,20.4,0,0,0,0,6.24,6.11,6.11,0,0,0,.72,2.06,2.81,2.81,0,0,0,1.22,1.13,4,4,0,0,0,1.71.34,8.32,8.32,0,0,0,1.92-.22,9.06,9.06,0,0,0,1.77-.64l.48,1.64a8.33,8.33,0,0,1-2,.73,10.16,10.16,0,0,1-2.41.27,7.24,7.24,0,0,1-2.56-.41,4.15,4.15,0,0,1-1.87-1.38,6.61,6.61,0,0,1-1.15-2.59,18.29,18.29,0,0,1-.38-4.06,16.94,16.94,0,0,1,.4-4,6.73,6.73,0,0,1,1.15-2.6,4.13,4.13,0,0,1,1.88-1.39,7.18,7.18,0,0,1,2.55-.41,10,10,0,0,1,1.07,0c.37,0,.74.09,1.09.16a9.51,9.51,0,0,1,1,.25c.32.1.61.2.87.31Zm4.77-2v9.24a16.13,16.13,0,0,0,.17,2.51,5.23,5.23,0,0,0,.53,1.66,2.27,2.27,0,0,0,.9.94,3.19,3.19,0,0,0,2.66,0,2.22,2.22,0,0,0,.9-.94,5,5,0,0,0,.53-1.66,16.13,16.13,0,0,0,.17-2.51V85.5h2.13v9.15a17.28,17.28,0,0,1-.28,3.41,5.84,5.84,0,0,1-.9,2.24,3.37,3.37,0,0,1-1.57,1.25,6.36,6.36,0,0,1-2.31.37,6.27,6.27,0,0,1-2.3-.37,3.47,3.47,0,0,1-1.57-1.25,5.84,5.84,0,0,1-.9-2.24,16.47,16.47,0,0,1-.29-3.41V85.5Zm15.22,0a11.3,11.3,0,0,1,2.4.23,3.76,3.76,0,0,1,1.67.78,3.24,3.24,0,0,1,1,1.47,7.18,7.18,0,0,1,.32,2.31,5.73,5.73,0,0,1-.62,3,3.29,3.29,0,0,1-1.91,1.38l.94,1.93,2.16,4.91H317.4l-2.76-6.57-.51,0H312v6.55h-2.13v-16ZM312,87.28v5.93H314a3.23,3.23,0,0,0,2.27-.64,3.08,3.08,0,0,0,.66-2.26,3.33,3.33,0,0,0-.66-2.33,3,3,0,0,0-2.27-.7Zm12.44-1.78v16h-2.14v-16Zm11.86,1.78h-3.89v14.19H330.2V87.28h-3.87V85.5h9.92Zm5,14.19V95.08l-4.61-9.58h2.45l2,4.43,1.23,3,1.24-3,2-4.45h2.45l-4.63,9.58v6.39Zm13-2.24a11.54,11.54,0,0,0,2.33.7,12,12,0,0,0,2.09.21,4,4,0,0,0,1.42-.22,2.47,2.47,0,0,0,1-.63,2.39,2.39,0,0,0,.54-.94,3.6,3.6,0,0,0,.17-1.17,2.65,2.65,0,0,0-.65-1.89,4.71,4.71,0,0,0-2.37-1.12,13.62,13.62,0,0,1-2.06-.64,5,5,0,0,1-1.5-.9,3.44,3.44,0,0,1-.92-1.28,4.58,4.58,0,0,1-.31-1.74,4.45,4.45,0,0,1,1.24-3.41,5.07,5.07,0,0,1,3.6-1.15,13.25,13.25,0,0,1,1.94.18,11.06,11.06,0,0,1,2.36.64l-.46,1.64a14,14,0,0,0-1.86-.49,9.8,9.8,0,0,0-1.87-.19,2.88,2.88,0,0,0-2.14.69,2.81,2.81,0,0,0-.68,2,2.41,2.41,0,0,0,.2,1,2,2,0,0,0,.6.73,4.19,4.19,0,0,0,1.06.53c.43.15.93.3,1.51.44a6.39,6.39,0,0,1,3.42,1.7,4.38,4.38,0,0,1,1.05,3.09,6.25,6.25,0,0,1-.29,1.93,3.8,3.8,0,0,1-.91,1.54,4,4,0,0,1-1.6,1,6.89,6.89,0,0,1-2.36.36c-.36,0-.76,0-1.19-.06s-.86-.11-1.3-.2a10.73,10.73,0,0,1-1.3-.32,9.63,9.63,0,0,1-1.18-.44Zm20.36-12h-3.89v14.19h-2.15V87.28h-3.88V85.5h9.92Zm4.08-1.78v9.24a16.13,16.13,0,0,0,.17,2.51,5,5,0,0,0,.53,1.66,2.27,2.27,0,0,0,.9.94,3.19,3.19,0,0,0,2.66,0,2.22,2.22,0,0,0,.9-.94,5,5,0,0,0,.53-1.66,16.13,16.13,0,0,0,.17-2.51V85.5h2.13v9.15a17.28,17.28,0,0,1-.28,3.41,6,6,0,0,1-.9,2.24,3.37,3.37,0,0,1-1.57,1.25,6.36,6.36,0,0,1-2.31.37,6.27,6.27,0,0,1-2.3-.37,3.42,3.42,0,0,1-1.57-1.25,5.84,5.84,0,0,1-.9-2.24,16.47,16.47,0,0,1-.29-3.41V85.5Zm15.35,0a11,11,0,0,1,3,.36,4.29,4.29,0,0,1,2.08,1.25,5.72,5.72,0,0,1,1.24,2.45,18.6,18.6,0,0,1,0,7.86,5.68,5.68,0,0,1-1.24,2.44,4.29,4.29,0,0,1-2.08,1.25,11,11,0,0,1-3,.36h-4.15v-16Zm-2,1.78V99.69h2.13a5.79,5.79,0,0,0,2-.3,2.82,2.82,0,0,0,1.35-1,5,5,0,0,0,.78-1.92,17.89,17.89,0,0,0,0-6,5,5,0,0,0-.78-1.91,2.82,2.82,0,0,0-1.35-1,5.79,5.79,0,0,0-2-.3Zm13.6-1.78v16h-2.13v-16Zm12.14,16h-8.61v-16h8.61v1.78h-6.48v5.16h4.9v1.77h-4.9v5.48h6.48Zm1.9-2.24a11.74,11.74,0,0,0,2.33.7,12,12,0,0,0,2.09.21,4,4,0,0,0,1.42-.22,2.47,2.47,0,0,0,1-.63,2.39,2.39,0,0,0,.54-.94,3.6,3.6,0,0,0,.17-1.17,2.65,2.65,0,0,0-.65-1.89,4.66,4.66,0,0,0-2.37-1.12,14,14,0,0,1-2.06-.64,5,5,0,0,1-1.5-.9,3.55,3.55,0,0,1-.92-1.28,4.58,4.58,0,0,1-.31-1.74,4.45,4.45,0,0,1,1.24-3.41,5.09,5.09,0,0,1,3.6-1.15,13,13,0,0,1,1.94.18,11.06,11.06,0,0,1,2.36.64L428,87.51a14,14,0,0,0-1.86-.49,9.8,9.8,0,0,0-1.87-.19,2.88,2.88,0,0,0-2.14.69,2.81,2.81,0,0,0-.68,2,2.41,2.41,0,0,0,.2,1,1.91,1.91,0,0,0,.61.73,4,4,0,0,0,1.05.53c.43.15.93.3,1.51.44a6.46,6.46,0,0,1,3.43,1.7,4.43,4.43,0,0,1,1,3.09A6.25,6.25,0,0,1,429,99a3.9,3.9,0,0,1-.9,1.54,4.12,4.12,0,0,1-1.61,1,6.85,6.85,0,0,1-2.36.36c-.36,0-.76,0-1.19-.06s-.86-.11-1.3-.2a10.73,10.73,0,0,1-1.3-.32,9.63,9.63,0,0,1-1.18-.44Zm-306-8.49a3.26,3.26,0,0,1,.48-1.95,2.11,2.11,0,0,1,1.76-.63,5.81,5.81,0,0,1,1.17.12c.39.09.68.16.88.23l-.37,1.2a3.93,3.93,0,0,0-.59-.17,3.49,3.49,0,0,0-.71-.07.82.82,0,0,0-.77.34,2.1,2.1,0,0,0-.2,1v1.5h2.11v1.31h-2.11v7.82h-1.65V93.65h-1.06V92.47l1.06-.13ZM121.65,92a4.74,4.74,0,0,1,1.64.26,2.53,2.53,0,0,1,1.13.83,3.73,3.73,0,0,1,.64,1.52,11.78,11.78,0,0,1,.2,2.32,11.64,11.64,0,0,1-.2,2.32,3.84,3.84,0,0,1-.64,1.53,2.53,2.53,0,0,1-1.13.83,4.75,4.75,0,0,1-1.64.25,4.7,4.7,0,0,1-1.65-.25,2.5,2.5,0,0,1-1.12-.83,3.84,3.84,0,0,1-.64-1.53,10.94,10.94,0,0,1-.2-2.32,11.07,11.07,0,0,1,.2-2.32,3.73,3.73,0,0,1,.64-1.52,2.5,2.5,0,0,1,1.12-.83,4.68,4.68,0,0,1,1.65-.26Zm0,1.32a1.83,1.83,0,0,0-.89.19,1.53,1.53,0,0,0-.6.61,3.62,3.62,0,0,0-.34,1.12,14.33,14.33,0,0,0,0,3.38,3.46,3.46,0,0,0,.34,1.12,1.56,1.56,0,0,0,.6.62,2,2,0,0,0,.89.19,2,2,0,0,0,.88-.19,1.5,1.5,0,0,0,.6-.62,3,3,0,0,0,.34-1.12,14.33,14.33,0,0,0,0-3.38,3.15,3.15,0,0,0-.34-1.12,1.47,1.47,0,0,0-.6-.61,1.87,1.87,0,0,0-.88-.19Zm10.07.71a4.36,4.36,0,0,0-.77-.27,3.15,3.15,0,0,0-.85-.11l-1.45,1.29v6.56H127V94.71l-.4-2.37h1.27l.41,1.31,1.57-1.48a3.11,3.11,0,0,1,.56-.15,4.23,4.23,0,0,1,.66,0,3.65,3.65,0,0,1,.63,0,2.13,2.13,0,0,1,.44.12Zm124.57,3.58c-.05.12-.12.26-.2.41s-.18.31-.29.46-.2.32-.3.46-.18.27-.26.37l1.4,2.19H255l-.73-1.12a5.08,5.08,0,0,1-1.37,1.06,3.93,3.93,0,0,1-1.86.42,6.35,6.35,0,0,1-1-.08,2.75,2.75,0,0,1-1.12-.42,2.69,2.69,0,0,1-.91-1,3.79,3.79,0,0,1-.38-1.84,5.15,5.15,0,0,1,.2-1.4,7.38,7.38,0,0,1,.53-1.3A9,9,0,0,1,250,93.65a8.8,8.8,0,0,1-.88-1.43,3.29,3.29,0,0,1-.33-1.43,3.22,3.22,0,0,1,.14-.93,2.39,2.39,0,0,1,.44-.78,2.17,2.17,0,0,1,.74-.55,2.32,2.32,0,0,1,1-.21A2.35,2.35,0,0,1,253,89a2.51,2.51,0,0,1,.63,1.79,2.59,2.59,0,0,1-.45,1.43,10,10,0,0,1-1.31,1.56l2.72,4.36c.13-.18.27-.4.43-.66s.28-.52.39-.76Zm-5.06,2.94a2.55,2.55,0,0,0,1.32-.38,4,4,0,0,0,1-.9l-2.78-4.53a6.72,6.72,0,0,0-.58.75,6.41,6.41,0,0,0-.5.88,5.68,5.68,0,0,0-.36.94,3.3,3.3,0,0,0-.14.91,3.05,3.05,0,0,0,.19,1.19,1.84,1.84,0,0,0,.5.71,1.77,1.77,0,0,0,.65.34,2.61,2.61,0,0,0,.66.09Zm-.95-9.64a2.12,2.12,0,0,0,.25,1,8.15,8.15,0,0,0,.55.93,4.71,4.71,0,0,0,.78-.91,1.71,1.71,0,0,0,.32-1A1.65,1.65,0,0,0,252,90a.82.82,0,0,0-.74-.35.78.78,0,0,0-.44.12.92.92,0,0,0-.29.3,1.13,1.13,0,0,0-.16.41,2.28,2.28,0,0,0,0,.45Z" />
</svg>